<svg width="60" height="103" viewBox="0 0 60 103" fill="none" xmlns="http://www.w3.org/2000/svg">
<path d="M4.47656 38.0562C7.33182 35.6129 11.1715 35.0735 14.4531 36.3218L14.5225 36.3481L14.5947 36.3647C14.6051 36.3681 14.7249 36.401 15.0039 36.4819C15.2803 36.5621 15.6722 36.6773 16.1631 36.8218C17.1447 37.1106 18.5202 37.5167 20.1582 38.0024C23.4342 38.9739 27.7593 40.2611 32.084 41.5503C36.4087 42.8395 40.7331 44.1309 44.0068 45.1118C45.6435 45.6022 47.0172 46.0151 47.9971 46.311C48.487 46.459 48.878 46.5773 49.1533 46.6616C49.4303 46.7464 49.5498 46.7842 49.5615 46.7876L49.6309 46.814L49.7021 46.8296C50.1718 46.9327 50.6357 47.0703 51.0869 47.2417L51.1553 47.2681L51.2275 47.2837C53.2588 47.7301 55.163 48.8167 56.6172 50.5171C60.1772 54.6782 59.6901 60.9396 55.5293 64.4995C52.6739 66.9428 48.8344 67.4824 45.5527 66.2339L44.1973 65.7183V65.8433C44.0667 65.8049 43.9267 65.7649 43.7783 65.7212C42.755 65.4198 41.32 64.9951 39.6104 64.4878C36.1914 63.4732 31.6755 62.1294 27.1602 60.7827C22.6447 59.436 18.1296 58.0861 14.7129 57.062C13.0047 56.55 11.5713 56.1195 10.5498 55.811C10.0391 55.6568 9.63225 55.5335 9.3457 55.4458C9.03033 55.3493 8.91059 55.3114 8.91992 55.3149L8.85156 55.2886L8.7793 55.2729L8.40039 55.1812C6.63799 54.7207 4.98858 53.7717 3.66797 52.3511L3.38965 52.0396C-0.170483 47.8784 0.315697 41.6161 4.47656 38.0562Z" stroke="white" stroke-width="2"/>
<path d="M19.6808 52.1105C18.0804 54.2591 15.6987 55.828 12.8508 56.3383C6.91544 57.4032 1.23846 53.4526 0.173633 47.5173C-0.481646 43.8691 0.759603 40.3155 3.1917 37.8771C3.50673 37.455 31.6837 4.77292 32.0555 4.40118C33.6559 2.25262 36.0376 0.68373 38.8855 0.173369C44.8208 -0.89146 50.4978 3.05912 51.5626 8.99443C52.2179 12.6426 50.9767 16.1962 48.5446 18.6346C48.2295 19.0567 20.0525 51.7388 19.6808 52.1105Z" fill="url(#paint0_linear_673_1407)"/>
<path d="M27.9386 98.1628C26.3382 100.311 23.9565 101.88 21.1086 102.391C15.1733 103.455 9.49627 99.5048 8.43145 93.5695C7.77617 89.9214 9.01742 86.3677 11.4495 83.9294C11.7645 83.5072 39.9415 50.8252 40.3133 50.4534C41.9137 48.3049 44.2954 46.736 47.1433 46.2256C53.0786 45.1608 58.7556 49.1114 59.8204 55.0467C60.4757 58.6948 59.2345 62.2484 56.8024 64.6868C56.4873 65.109 28.3103 97.791 27.9386 98.1628Z" fill="url(#paint1_linear_673_1407)"/>
<defs>
<linearGradient id="paint0_linear_673_1407" x1="19.8474" y1="20.4775" x2="60.1722" y2="-5.04061" gradientUnits="userSpaceOnUse">
<stop stop-color="white"/>
<stop offset="1" stop-color="white" stop-opacity="0"/>
</linearGradient>
<linearGradient id="paint1_linear_673_1407" x1="39.3773" y1="67.7333" x2="8.18851" y2="117.194" gradientUnits="userSpaceOnUse">
<stop stop-color="white"/>
<stop offset="1" stop-color="white" stop-opacity="0"/>
</linearGradient>
</defs>
</svg>
